# xmcd
#
# Track frame offsets: 
#        150
#        12876
#        27386
#        39116
#        59589
#        73378
#        87653
#        101735
#        117410
#        135322
#        148321
#        159865
#
# Disc length: 2384 seconds
#
# Revision: 0
# Processed by: cddbd v1.5.2PL0 Copyright (c) Steve Scherf et al.
# Submitted via: ExactAudioCopyFreeDBPlugin 1.0
#
DISCID=a9094e0c
DTITLE=Michael Bolton - Ain't No Mountain High Enough
DYEAR=2013
DGENRE=Soul
TTITLE0=Ain’t No Mountain High Enough (feat. Leona Lewis)
TTITLE1=How Sweet It Is (To Be Loved By You)
TTITLE2=Ain’t Nothing Like the Real Thing (feat. Melanie Fiona)
TTITLE3=Gotta Keep Dreamin’
TTITLE4=Nowhere to Run
TTITLE5=The Way You Do The Things You Do
TTITLE6=You Keep Me Hanging On
TTITLE7=What’s Going On - With Michael Lington
TTITLE8=Tracks Of My Tears
TTITLE9=Signed, Sealed, Delivered (I’m Yours)
TTITLE10=Money (That's what I want - feat. Orianthi)
TTITLE11=Somethin' Out of Nothin'
EXTD=
EXTT0=
EXTT1=
EXTT2=
EXTT3=
EXTT4=
EXTT5=
EXTT6=
EXTT7=
EXTT8=
EXTT9=
EXTT10=
EXTT11=
PLAYORDER=
